<?xml version="1.0" encoding="UTF-8"?>
<svg id="Capa_3" data-name="Capa 3" xmlns="http://www.w3.org/2000/svg" viewBox="0 0 500 146.21">
  <defs>
    <style>
      .cls-1 {
        fill: #fff;
        stroke-width: 0px;
      }
    </style>
  </defs>
  <path class="cls-1" d="m51.72,56.12c-1.05-8.59-6.92-12.89-17.61-12.89-4.61,0-8.18.84-10.69,2.52-2.52,1.68-4.57,5.95-3.54,9.43,1.66,5.57,8.83,6.77,16.43,8.41,1.78.38,21.23,3.77,28.88,10.32,2.5,2.14,6.44,6.58,6.65,15.38.19,8.17-3.2,14.67-9.59,19.49-6.39,4.82-14.99,7.23-25.78,7.23-11.53,0-20.39-2.41-26.57-7.23C3.72,103.97.42,96.95,0,87.72h17.14c.94,10.17,7.49,15.25,19.65,15.25,5.24,0,9.46-1.07,12.66-3.22s4.79-5,4.79-8.57c0-1.78-.33-5.21-5.03-7.78-5.5-3.01-28.2-6.89-36.32-10.93-7.39-3.67-11.16-9.48-11.16-17.76,0-7.65,2.93-13.65,8.8-18,5.87-4.35,13.99-6.52,24.37-6.52s18.11,2.15,24.45,6.45c6.34,4.3,9.51,10.8,9.51,19.49h-17.14Z"/>
  <path class="cls-1" d="m206.95,30.03c10.17,0,18.26,1.99,24.29,5.97,6.03,3.98,9.04,10.17,9.04,18.55v41.19c0,2.31.29,3.88.86,4.72.58.84,1.7,1.26,3.38,1.26,1.26,0,2.62-.11,4.09-.31v12.58c-4.61,1.15-8.49,1.73-11.63,1.73-7.65,0-12.05-3.25-13.21-9.75-6.81,6.5-16.3,9.75-28.45,9.75-8.38,0-15.04-2.18-19.97-6.52-4.93-4.35-7.39-10.25-7.39-17.69,0-5.59,1.57-9.75,2.59-11.63,3.67-6.78,9.75-8.7,11.95-9.59,3.28-1.32,8.04-2.41,10.77-2.83,2.72-.42,8.18-1.26,11.01-1.57,6.39-.84,10.74-1.55,13.05-2.12s3.88-1.44,4.72-2.59c.73-.84,1.1-2.78,1.1-5.82,0-8.18-5.55-12.26-16.66-12.26-5.87,0-10.17,1.1-12.89,3.3-2.72,2.2-4.45,5.92-5.19,11.16h-16.98c1.89-18.34,13.73-27.51,35.53-27.51Zm-2.83,47.32c-7.29.85-13.52,2.3-16.66,8.1-.81,1.48-1.1,3.33-1.1,5.42,0,3.88,1.28,6.86,3.85,8.96,2.57,2.1,6.16,3.14,10.77,3.14,7.97,0,14.1-2.15,18.39-6.45,2.41-2.41,3.62-7.07,3.62-13.99v-9.59c-4.9,2.57-11.03,3.49-18.87,4.4Z"/>
  <path class="cls-1" d="m276.75,44.02c6.71-9.12,15.2-13.68,25.47-13.68,5.35,0,9.98,1.21,13.91,3.62,3.93,2.41,6.84,5.82,8.72,10.22,6.5-9.22,15.25-13.84,26.25-13.84,7.65,0,13.99,2.28,19.02,6.84,5.03,4.56,7.55,10.87,7.55,18.94v57.54h-17.92v-49.84c0-5.76-1-10.27-2.99-13.52-1.99-3.25-5.82-4.87-11.48-4.87s-10.17,1.81-13.21,5.42c-3.04,3.62-4.56,8.67-4.56,15.17v47.64h-17.92v-50.78c0-5.76-.86-10.11-2.59-13.05-1.73-2.93-5.32-4.4-10.77-4.4-6.08,0-10.69,1.97-13.83,5.9-3.14,3.93-4.72,9.14-4.72,15.64v46.69h-17.92V32.54h16.98v11.48Z"/>
  <path class="cls-1" d="m429.49,125.93c-2.62,6.52-8.86,18.3-24.92,18.71-3.35.09-7.49-.31-12.42-.94v-15.09c3.77.73,6.92,1.22,9.43,1.1,5.2-.24,8.56-3.76,10.3-8.25.55-1.43,1.82-4.72,3.54-10.14l-31.13-78.76h19.65l21.7,59.74,20.44-59.74h18.71s-33.9,89.92-35.29,93.38Z"/>
  <path class="cls-1" d="m500,0v146.21h-35.22v-13.99h18.55V13.99h-18.55V0h35.22Z"/>
  <path class="cls-1" d="m101.98,43.7c5.97-8.8,14.52-13.21,25.63-13.21,8.52,0,15.67,2.38,20.59,7.15,4.93,4.77,7.39,11.76,7.39,20.99v55.02h-18.08v-49.21c0-6.18-1.07-10.9-3.22-14.15-2.15-3.25-6.32-4.87-12.5-4.87-6.92,0-11.95,2.25-15.09,6.76-3.14,4.51-4.72,10.48-4.72,17.92v43.55h-17.76V2.52h17.76v41.19Z"/>
</svg>
