<?xml version="1.0" encoding="UTF-8"?>
<svg id="Capa_3" data-name="Capa 3" xmlns="http://www.w3.org/2000/svg" viewBox="0 0 111.71 146.21">
  <defs>
    <style>
      .cls-1 {
        stroke-width: 0px;
      }
    </style>
  </defs>
  <path class="cls-1" d="m51.72,56.12c-1.05-8.59-6.92-12.89-17.61-12.89-4.61,0-8.18.84-10.69,2.52-2.52,1.68-4.57,5.95-3.54,9.43,1.66,5.57,8.83,6.77,16.43,8.41,1.78.38,21.23,3.77,28.88,10.32,2.5,2.14,6.44,6.58,6.65,15.38.19,8.17-3.2,14.67-9.59,19.49-6.39,4.82-14.99,7.23-25.78,7.23-11.53,0-20.39-2.41-26.57-7.23C3.72,103.97.42,96.95,0,87.72h17.14c.94,10.17,7.49,15.25,19.65,15.25,5.24,0,9.46-1.07,12.66-3.22,3.2-2.15,4.79-5,4.79-8.57,0-1.78-.33-5.21-5.03-7.78-5.5-3.01-28.2-6.89-36.32-10.93-7.39-3.67-11.16-9.48-11.16-17.76,0-7.65,2.93-13.65,8.8-18,5.87-4.35,13.99-6.52,24.37-6.52s18.11,2.15,24.45,6.45c6.34,4.3,9.51,10.8,9.51,19.49h-17.14Z"/>
  <path class="cls-1" d="m111.71,0v146.21h-35.22v-13.99h18.55V13.99h-18.55V0h35.22Z"/>
</svg>
